<?xml version="1.0" encoding="utf-8"?>
<!-- Generator: Adobe Illustrator 25.0.0, SVG Export Plug-In . SVG Version: 6.00 Build 0)  -->
<svg version="1.1" id="Capa_1" xmlns="http://www.w3.org/2000/svg" xmlns:xlink="http://www.w3.org/1999/xlink" x="0px" y="0px"
	 viewBox="0 0 612 612" style="enable-background:new 0 0 612 612;" xml:space="preserve">
<style type="text/css">
	.st0{fill:#8A53F5;}
</style>
<g>
	<g id="_x33__1_">
		<g>
			<path class="st0" d="M61.2,122.4h489.6c33.8,0,61.2-27.4,61.2-61.2S584.6,0,550.8,0H61.2C27.4,0,0,27.4,0,61.2
				S27.4,122.4,61.2,122.4z M550.8,244.8H61.2C27.4,244.8,0,272.2,0,306s27.4,61.2,61.2,61.2h489.6c33.8,0,61.2-27.4,61.2-61.2
				S584.6,244.8,550.8,244.8z M550.8,489.6H61.2C27.4,489.6,0,517,0,550.8S27.4,612,61.2,612h489.6c33.8,0,61.2-27.4,61.2-61.2
				S584.6,489.6,550.8,489.6z"/>
		</g>
	</g>
</g>
</svg>
